<mxfile host="app.diagrams.net" modified="2024-01-15T10:00:00.000Z" agent="5.0" etag="def456" version="22.1.16" type="device">
  <diagram name="Scènes et Navigation" id="scenes-navigation">
    <mxGraphModel dx="1422" dy="794" grid="1" gridSize="10" guides="1" tooltips="1" connect="1" arrows="1" fold="1" page="1" pageScale="1" pageWidth="1169" pageHeight="827" math="0" shadow="0">
      <root>
        <mxCell id="0" />
        <mxCell id="1" parent="0" />
        
        <!-- Titre -->
        <mxCell id="title" value="R-Type 2 - Flux des Scènes et Navigation" style="text;html=1;strokeColor=none;fillColor=none;align=center;verticalAlign=middle;whiteSpace=wrap;rounded=0;fontSize=20;fontStyle=1;" vertex="1" parent="1">
          <mxGeometry x="300" y="20" width="569" height="30" as="geometry" />
        </mxCell>
        
        <!-- PreloadScene -->
        <mxCell id="preload-scene" value="PreloadScene" style="rounded=1;whiteSpace=wrap;html=1;fillColor=#f8cecc;strokeColor=#b85450;fontSize=16;fontStyle=1;" vertex="1" parent="1">
          <mxGeometry x="80" y="100" width="200" height="60" as="geometry" />
        </mxCell>
        
        <mxCell id="preload-details" value="• Chargement des assets SVG&#xa;• Création des textures fallback&#xa;• Vérification DeLorean/Ennemis&#xa;• Barre de progression&#xa;• Logs de debug" style="text;html=1;strokeColor=#b85450;fillColor=#f8cecc;align=left;verticalAlign=top;whiteSpace=wrap;rounded=1;fontSize=10;" vertex="1" parent="1">
          <mxGeometry x="80" y="170" width="200" height="80" as="geometry" />
        </mxCell>
        
        <!-- MenuScene -->
        <mxCell id="menu-scene" value="MenuScene" style="rounded=1;whiteSpace=wrap;html=1;fillColor=#d5e8d4;strokeColor=#82b366;fontSize=16;fontStyle=1;" vertex="1" parent="1">
          <mxGeometry x="400" y="100" width="200" height="60" as="geometry" />
        </mxCell>
        
        <mxCell id="menu-details" value="• Menu principal&#xa;• Bouton Start Game&#xa;• Affichage high score&#xa;• Instructions de jeu&#xa;• Navigation clavier" style="text;html=1;strokeColor=#82b366;fillColor=#d5e8d4;align=left;verticalAlign=top;whiteSpace=wrap;rounded=1;fontSize=10;" vertex="1" parent="1">
          <mxGeometry x="400" y="170" width="200" height="80" as="geometry" />
        </mxCell>
        
        <!-- GameScene -->
        <mxCell id="game-scene" value="GameScene" style="rounded=1;whiteSpace=wrap;html=1;fillColor=#fff2cc;strokeColor=#d6b656;fontSize=16;fontStyle=1;" vertex="1" parent="1">
          <mxGeometry x="720" y="100" width="200" height="60" as="geometry" />
        </mxCell>
        
        <mxCell id="game-details" value="• Gameplay principal&#xa;• Gestion des entités&#xa;• Système de collision&#xa;• Terrain alien&#xa;• Progression des niveaux" style="text;html=1;strokeColor=#d6b656;fillColor=#fff2cc;align=left;verticalAlign=top;whiteSpace=wrap;rounded=1;fontSize=10;" vertex="1" parent="1">
          <mxGeometry x="720" y="170" width="200" height="80" as="geometry" />
        </mxCell>
        
        <!-- GameOverScene -->
        <mxCell id="gameover-scene" value="GameOverScene" style="rounded=1;whiteSpace=wrap;html=1;fillColor=#e1d5e7;strokeColor=#9673a6;fontSize=16;fontStyle=1;" vertex="1" parent="1">
          <mxGeometry x="400" y="350" width="200" height="60" as="geometry" />
        </mxCell>
        
        <mxCell id="gameover-details" value="• Écran de fin de partie&#xa;• Affichage du score final&#xa;• Statistiques de jeu&#xa;• Sauvegarde high score&#xa;• Retour au menu" style="text;html=1;strokeColor=#9673a6;fillColor=#e1d5e7;align=left;verticalAlign=top;whiteSpace=wrap;rounded=1;fontSize=10;" vertex="1" parent="1">
          <mxGeometry x="400" y="420" width="200" height="80" as="geometry" />
        </mxCell>
        
        <!-- Flèches de navigation -->
        <mxCell id="arrow-preload-menu" style="edgeStyle=orthogonalEdgeStyle;rounded=0;orthogonalLoop=1;jettySize=auto;html=1;exitX=1;exitY=0.5;exitDx=0;exitDy=0;entryX=0;entryY=0.5;entryDx=0;entryDy=0;strokeWidth=3;strokeColor=#2D7600;" edge="1" parent="1" source="preload-scene" target="menu-scene">
          <mxGeometry relative="1" as="geometry" />
        </mxCell>
        <mxCell id="label-preload-menu" value="Assets chargés" style="text;html=1;strokeColor=none;fillColor=none;align=center;verticalAlign=middle;whiteSpace=wrap;rounded=0;fontSize=10;fontStyle=1;color=#2D7600;" vertex="1" parent="1">
          <mxGeometry x="300" y="110" width="80" height="20" as="geometry" />
        </mxCell>
        
        <mxCell id="arrow-menu-game" style="edgeStyle=orthogonalEdgeStyle;rounded=0;orthogonalLoop=1;jettySize=auto;html=1;exitX=1;exitY=0.5;exitDx=0;exitDy=0;entryX=0;entryY=0.5;entryDx=0;entryDy=0;strokeWidth=3;strokeColor=#1BA1E2;" edge="1" parent="1" source="menu-scene" target="game-scene">
          <mxGeometry relative="1" as="geometry" />
        </mxCell>
        <mxCell id="label-menu-game" value="Start Game&#xa;(Entrée)" style="text;html=1;strokeColor=none;fillColor=none;align=center;verticalAlign=middle;whiteSpace=wrap;rounded=0;fontSize=10;fontStyle=1;color=#1BA1E2;" vertex="1" parent="1">
          <mxGeometry x="620" y="105" width="80" height="30" as="geometry" />
        </mxCell>
        
        <mxCell id="arrow-game-gameover" style="edgeStyle=orthogonalEdgeStyle;rounded=0;orthogonalLoop=1;jettySize=auto;html=1;exitX=0.5;exitY=1;exitDx=0;exitDy=0;entryX=1;entryY=0.5;entryDx=0;entryDy=0;strokeWidth=3;strokeColor=#D20100;" edge="1" parent="1" source="game-scene" target="gameover-scene">
          <mxGeometry relative="1" as="geometry" />
        </mxCell>
        <mxCell id="label-game-gameover" value="Game Over&#xa;(Vies = 0)" style="text;html=1;strokeColor=none;fillColor=none;align=center;verticalAlign=middle;whiteSpace=wrap;rounded=0;fontSize=10;fontStyle=1;color=#D20100;" vertex="1" parent="1">
          <mxGeometry x="650" y="280" width="80" height="30" as="geometry" />
        </mxCell>
        
        <mxCell id="arrow-gameover-menu" style="edgeStyle=orthogonalEdgeStyle;rounded=0;orthogonalLoop=1;jettySize=auto;html=1;exitX=0;exitY=0.5;exitDx=0;exitDy=0;entryX=0.5;entryY=1;entryDx=0;entryDy=0;strokeWidth=3;strokeColor=#7F00FF;" edge="1" parent="1" source="gameover-scene" target="menu-scene">
          <mxGeometry relative="1" as="geometry" />
        </mxCell>
        <mxCell id="label-gameover-menu" value="Retour Menu&#xa;(M)" style="text;html=1;strokeColor=none;fillColor=none;align=center;verticalAlign=middle;whiteSpace=wrap;rounded=0;fontSize=10;fontStyle=1;color=#7F00FF;" vertex="1" parent="1">
          <mxGeometry x="320" y="280" width="80" height="30" as="geometry" />
        </mxCell>
        
        <!-- Cycle de jeu -->
        <mxCell id="game-cycle-title" value="CYCLE DE JEU" style="text;html=1;strokeColor=none;fillColor=none;align=center;verticalAlign=middle;whiteSpace=wrap;rounded=0;fontSize=16;fontStyle=1;" vertex="1" parent="1">
          <mxGeometry x="80" y="550" width="200" height="30" as="geometry" />
        </mxCell>
        
        <mxCell id="level-progression" value="Progression des Niveaux" style="rounded=1;whiteSpace=wrap;html=1;fillColor=#dae8fc;strokeColor=#6c8ebf;fontSize=14;fontStyle=1;" vertex="1" parent="1">
          <mxGeometry x="80" y="590" width="200" height="40" as="geometry" />
        </mxCell>
        
        <mxCell id="level-details" value="Niveau 1: Secteur Spatial&#xa;Niveau 2: Champ d'Astéroïdes&#xa;Niveau 3: Nébuleuse Toxique&#xa;Niveau 4: Station Ennemie&#xa;Niveau 5: Cœur Alien" style="text;html=1;strokeColor=#6c8ebf;fillColor=#dae8fc;align=left;verticalAlign=top;whiteSpace=wrap;rounded=1;fontSize=10;" vertex="1" parent="1">
          <mxGeometry x="80" y="640" width="200" height="80" as="geometry" />
        </mxCell>
        
        <!-- États de GameScene -->
        <mxCell id="game-states-title" value="ÉTATS DE GAMESCENE" style="text;html=1;strokeColor=none;fillColor=none;align=center;verticalAlign=middle;whiteSpace=wrap;rounded=0;fontSize=16;fontStyle=1;" vertex="1" parent="1">
          <mxGeometry x="400" y="550" width="200" height="30" as="geometry" />
        </mxCell>
        
        <mxCell id="playing-state" value="PLAYING" style="rounded=1;whiteSpace=wrap;html=1;fillColor=#d5e8d4;strokeColor=#82b366;fontSize=12;fontStyle=1;" vertex="1" parent="1">
          <mxGeometry x="320" y="590" width="80" height="40" as="geometry" />
        </mxCell>
        
        <mxCell id="paused-state" value="PAUSED" style="rounded=1;whiteSpace=wrap;html=1;fillColor=#fff2cc;strokeColor=#d6b656;fontSize=12;fontStyle=1;" vertex="1" parent="1">
          <mxGeometry x="410" y="590" width="80" height="40" as="geometry" />
        </mxCell>
        
        <mxCell id="boss-fight-state" value="BOSS FIGHT" style="rounded=1;whiteSpace=wrap;html=1;fillColor=#f8cecc;strokeColor=#b85450;fontSize=12;fontStyle=1;" vertex="1" parent="1">
          <mxGeometry x="500" y="590" width="80" height="40" as="geometry" />
        </mxCell>
        
        <mxCell id="level-complete-state" value="LEVEL&#xa;COMPLETE" style="rounded=1;whiteSpace=wrap;html=1;fillColor=#e1d5e7;strokeColor=#9673a6;fontSize=12;fontStyle=1;" vertex="1" parent="1">
          <mxGeometry x="590" y="590" width="80" height="40" as="geometry" />
        </mxCell>
        
        <!-- Données partagées -->
        <mxCell id="shared-data-title" value="DONNÉES PARTAGÉES" style="text;html=1;strokeColor=none;fillColor=none;align=center;verticalAlign=middle;whiteSpace=wrap;rounded=0;fontSize=16;fontStyle=1;" vertex="1" parent="1">
          <mxGeometry x="720" y="550" width="200" height="30" as="geometry" />
        </mxCell>
        
        <mxCell id="scene-data" value="Scene Data Transfer" style="rounded=1;whiteSpace=wrap;html=1;fillColor=#f0f0f0;strokeColor=#666666;fontSize=12;fontStyle=1;" vertex="1" parent="1">
          <mxGeometry x="720" y="590" width="200" height="40" as="geometry" />
        </mxCell>
        
        <mxCell id="scene-data-details" value="• level: Niveau actuel&#xa;• score: Score du joueur&#xa;• lives: Vies restantes&#xa;• gameStats: Statistiques&#xa;• Persistance entre scènes" style="text;html=1;strokeColor=#666666;fillColor=#f0f0f0;align=left;verticalAlign=top;whiteSpace=wrap;rounded=1;fontSize=10;" vertex="1" parent="1">
          <mxGeometry x="720" y="640" width="200" height="80" as="geometry" />
        </mxCell>
        
        <!-- Contrôles -->
        <mxCell id="controls-title" value="CONTRÔLES" style="text;html=1;strokeColor=none;fillColor=none;align=center;verticalAlign=middle;whiteSpace=wrap;rounded=0;fontSize=14;fontStyle=1;" vertex="1" parent="1">
          <mxGeometry x="80" y="750" width="100" height="30" as="geometry" />
        </mxCell>
        
        <mxCell id="controls-list" value="• Flèches: Déplacement&#xa;• Espace: Tirer&#xa;• Entrée: Start Game&#xa;• M: Retour Menu&#xa;• P: Pause (futur)" style="text;html=1;strokeColor=#666666;fillColor=#f5f5f5;align=left;verticalAlign=top;whiteSpace=wrap;rounded=1;fontSize=10;" vertex="1" parent="1">
          <mxGeometry x="200" y="740" width="150" height="80" as="geometry" />
        </mxCell>
        
        <!-- Performance -->
        <mxCell id="performance-title" value="PERFORMANCE" style="text;html=1;strokeColor=none;fillColor=none;align=center;verticalAlign=middle;whiteSpace=wrap;rounded=0;fontSize=14;fontStyle=1;" vertex="1" parent="1">
          <mxGeometry x="400" y="750" width="100" height="30" as="geometry" />
        </mxCell>
        
        <mxCell id="performance-list" value="• 60 FPS target&#xa;• Object pooling&#xa;• Efficient collision&#xa;• Asset preloading&#xa;• Memory management" style="text;html=1;strokeColor=#666666;fillColor=#f5f5f5;align=left;verticalAlign=top;whiteSpace=wrap;rounded=1;fontSize=10;" vertex="1" parent="1">
          <mxGeometry x="520" y="740" width="150" height="80" as="geometry" />
        </mxCell>
      </root>
    </mxGraphModel>
  </diagram>
</mxfile>
